<?xml version="1.0" encoding="utf-8"?>
<!-- Generator: Adobe Illustrator 16.0.0, SVG Export Plug-In . SVG Version: 6.00 Build 0)  -->
<!DOCTYPE svg PUBLIC "-//W3C//DTD SVG 1.1//EN" "http://www.w3.org/Graphics/SVG/1.1/DTD/svg11.dtd">
<svg version="1.1" id="Layer_1" xmlns="http://www.w3.org/2000/svg" xmlns:xlink="http://www.w3.org/1999/xlink" x="0px" y="0px"
	 width="64px" height="64px" viewBox="0 -3 64 64" enable-background="new 0 0 63.949 57.691" xml:space="preserve">
<g id="Layer_1_1_">
	<path fill="white" d="M63.939,20.607C63.407,13.616,56.036,0,39.803,0C27.916,0,12.767,9.699,12.767,28.708c0,0.247-0.007,0.67-0.007,0.919
		c0,3.725,0.57,7.083,1.583,10.082L0.375,45.198c-0.002,0.001-0.004,0-0.006,0.001s-0.004,0.003-0.007,0.004l-0.007,0.003v0.001
		c-0.281,0.109-0.424,0.422-0.323,0.708c0.105,0.29,0.426,0.44,0.717,0.336c0.005-0.002,0.008-0.006,0.014-0.008l0.001,0.003
		l13.956-5.483c4.289,11.159,15.013,16.93,25.978,16.93V57.69c11.145-0.012,19.836-6.359,22.717-16.58
		c0.103-0.408,0.024-0.689-0.259-0.825c-0.342-0.114-0.731-0.006-0.812,0.415l0,0c-2.75,9.922-10.853,15.846-21.676,15.846l0,0
		c-9.499-0.006-13.827-8.075-14.906-20.12L63.45,21.618l-0.007-0.02C63.779,21.448,63.996,21.096,63.939,20.607z M49.82,25.772
		L49.82,25.772l-24.153,9.489c-0.125-1.757-0.186-3.591-0.186-5.493c0-0.296,0-0.766,0.003-1.062
		c0.092-14.734,2.562-27.436,14.043-27.436c7.965,0,11.148,6.438,11.318,20.222c0.002,0.188,0.004,1.258,0.006,2.365
		C50.835,24.648,50.529,25.51,49.82,25.772z"/>
</g>
<g id="Measurements_for_safe_area__x28_DO_NOT_USE_x29_" display="none">
	<text transform="matrix(1 0 0 1 -65.5767 75.3782)" display="inline" font-family="'MyriadPro-Regular'" font-size="12">1/2 x</text>
	<text transform="matrix(1 0 0 1 -17.4692 -48.2595)" display="inline" font-family="'MyriadPro-Regular'" font-size="12">3/4 x</text>
	<line display="inline" fill="none" x1="63.773" y1="110.303" x2="12.846" y2="110.303"/>
	<line display="inline" fill="none" x1="12.846" y1="107.968" x2="12.846" y2="113.061"/>
	<line display="inline" fill="none" x1="63.984" y1="107.756" x2="63.984" y2="112.425"/>
	<text transform="matrix(1 0 0 1 36.4004 126.0061)" display="inline" font-family="'MyriadPro-Regular'" font-size="12">X</text>
	<line display="inline" fill="none" x1="-33.201" y1="57.466" x2="-33.201" y2="86.537"/>
	<line display="inline" fill="none" x1="-35.761" y1="57.466" x2="-31.412" y2="57.466"/>
	<line display="inline" fill="none" x1="-35.761" y1="86.358" x2="-31.412" y2="86.358"/>
	<line display="inline" fill="none" x1="-25.682" y1="-39.478" x2="12.896" y2="-39.478"/>
	<line display="inline" fill="none" x1="-25.682" y1="-36.917" x2="-25.682" y2="-41.267"/>
	<line display="inline" fill="none" x1="12.718" y1="-36.917" x2="12.718" y2="-41.267"/>
</g>
</svg>
